<svg width="379" height="132" viewBox="0 0 379 132" fill="none" xmlns="http://www.w3.org/2000/svg">
<path d="M43.2355 126.547C43.1605 126.527 43.0856 126.504 43.0106 126.476C36.5357 124.124 30.5796 120.839 25.1424 116.621C25.031 116.537 24.8936 116.495 24.7542 116.501C24.6147 116.508 24.4819 116.563 24.3789 116.657C20.9737 119.778 17.5212 122.842 14.0213 125.849C13.0684 126.665 11.6657 127.198 11.719 125.168C11.7207 125.086 11.7395 125.005 11.7742 124.931C11.8088 124.856 11.8585 124.79 11.9202 124.736L22.5914 115.272C22.6551 115.215 22.7059 115.145 22.7403 115.068C22.7747 114.99 22.792 114.905 22.7909 114.82C22.7897 114.735 22.7703 114.652 22.7338 114.576C22.6973 114.499 22.6447 114.432 22.5796 114.378C17.6435 110.22 13.5222 105.368 10.2156 99.8245C10.1715 99.7512 10.1121 99.6883 10.0413 99.6402C9.97056 99.5921 9.89023 99.5599 9.80585 99.5459C9.72147 99.5318 9.63504 99.5362 9.55252 99.5588C9.47 99.5813 9.39335 99.6215 9.32785 99.6765L4.45092 103.778C4.34046 103.87 4.19961 103.918 4.05438 103.914C-0.360898 103.825 7.71207 97.8536 8.16781 97.4807C8.26771 97.3973 8.3375 97.2837 8.36639 97.1574C8.39528 97.0311 8.38165 96.8993 8.32761 96.7823L4.61664 88.5554C4.5788 88.4727 4.52255 88.3996 4.45225 88.342C4.38196 88.2843 4.29952 88.2436 4.21134 88.223C4.12316 88.2024 4.03162 88.2024 3.94383 88.2231C3.85604 88.2438 3.77438 88.2846 3.70518 88.3424L1.94144 89.7924C1.84869 89.8659 1.73775 89.9111 1.62183 89.9226C-2.60405 90.3192 2.70494 86.1525 3.21394 85.7619C3.30821 85.6908 3.37855 85.5927 3.41557 85.4806C3.45258 85.3685 3.45451 85.2477 3.42109 85.1345C1.98484 80.0563 1.10297 74.8874 0.775473 69.6278C0.104698 58.8914 2.15845 48.7765 6.93674 39.2831C7.38655 38.3913 7.16954 38.1822 6.28569 38.6557L5.37423 39.147C5.23727 39.2192 5.07832 39.2362 4.93033 39.1943C3.32047 38.7267 3.81172 37.4957 4.7942 36.7736C7.8995 34.5009 10.6714 31.8907 13.1098 28.9433C16.2309 25.1751 17.8132 23.2673 17.8566 23.22C30.9485 9.40006 46.8814 3.40452 66.0932 3.10267C69.8041 3.04348 73.3434 3.79515 77.0011 4.35741C77.0828 4.37041 77.1662 4.36605 77.2458 4.34462C77.3254 4.3232 77.3993 4.2852 77.4628 4.23312L82.4226 0.172961C82.5077 0.103214 82.6101 0.0581806 82.7185 0.0427521C85.37 -0.300527 84.429 1.51057 83.3814 2.36284C82.5173 3.06124 81.6492 3.78331 80.7772 4.52905C80.213 5.01438 80.2899 5.35568 81.008 5.55297C87.2226 7.25358 93.0603 9.81633 98.5212 13.2412C98.6245 13.3071 98.746 13.3391 98.869 13.3328C98.992 13.3264 99.1103 13.282 99.2077 13.2057C102.139 10.8541 105.057 8.48268 107.961 6.09156C108.9 5.3182 109.701 5.50957 110.364 6.66567C110.435 6.7881 110.46 6.93179 110.433 7.07075C110.407 7.20971 110.333 7.33475 110.222 7.42325L101.486 14.348C101.415 14.404 101.358 14.4758 101.319 14.5577C101.28 14.6396 101.261 14.7294 101.262 14.82C101.264 14.9106 101.287 14.9996 101.329 15.08C101.371 15.1604 101.431 15.2299 101.504 15.2832C111.38 22.6143 118.654 31.9736 123.326 43.361C123.361 43.447 123.415 43.5237 123.485 43.5848C123.555 43.6459 123.638 43.6897 123.728 43.7127C123.818 43.7358 123.912 43.7374 124.002 43.7174C124.093 43.6974 124.178 43.6564 124.249 43.5977C125.453 42.6074 126.672 41.5598 127.907 40.455C128.913 39.5553 129.795 39.8631 130.127 41.2717C130.151 41.3788 130.146 41.4909 130.11 41.5954C130.075 41.6999 130.011 41.7928 129.925 41.8636L124.853 46.0954C124.762 46.171 124.696 46.2715 124.662 46.3843C124.628 46.497 124.629 46.6168 124.664 46.7287C126.096 51.3728 127.037 56.1215 127.487 60.9748C127.55 61.6613 127.862 61.8034 128.422 61.4009L131.014 59.5365C131.136 59.4492 131.286 59.4111 131.435 59.43C135.104 59.8976 128.694 63.94 128.138 64.2951C128.051 64.3514 127.979 64.4282 127.931 64.5184C127.882 64.6085 127.858 64.7089 127.86 64.81C128.002 70.8115 127.313 76.7143 125.794 82.5185C125.439 83.8758 125.766 84.0672 126.777 83.0926C127.333 82.5599 132.032 77.8842 132.293 80.737C132.3 80.8238 132.288 80.9113 132.258 80.9932C132.227 81.0751 132.178 81.1493 132.115 81.2105C130.02 83.2859 127.818 85.2331 125.51 87.0521C124.863 87.5651 124.378 88.1885 124.054 88.9224C122.734 91.935 121.391 95.1251 119.864 97.8299C105.191 123.878 75.0007 135.863 46.3665 127.63C46.2739 127.603 46.1757 127.599 46.0806 127.62C45.9856 127.641 45.8967 127.685 45.822 127.748C45.3485 128.145 39.4595 134.241 39.4654 130.761C39.4655 130.677 39.4836 130.595 39.5183 130.52C39.553 130.444 39.6036 130.377 39.6666 130.323L43.3539 127.068C43.6301 126.823 43.5906 126.65 43.2355 126.547ZM118.988 66.7276C118.988 59.6166 117.587 52.5753 114.866 46.0056C112.145 39.4359 108.156 33.4665 103.128 28.4383C98.0995 23.4101 92.1301 19.4215 85.5605 16.7002C78.9908 13.979 71.9494 12.5783 64.8384 12.5783C50.4771 12.5783 36.7041 18.2833 26.5491 28.4383C16.3941 38.5933 10.6891 52.3663 10.6891 66.7276C10.6891 81.0889 16.3941 94.862 26.5491 105.017C36.7041 115.172 50.4771 120.877 64.8384 120.877C71.9494 120.877 78.9908 119.476 85.5605 116.755C92.1301 114.034 98.0995 110.045 103.128 105.017C108.156 99.9887 112.145 94.0194 114.866 87.4497C117.587 80.88 118.988 73.8386 118.988 66.7276Z" fill="#FFDD59"/>
<path d="M75.003 41.8696C75.114 41.9539 75.1932 42.0728 75.2279 42.2069C76.4353 47.149 74.0797 46.492 71.4933 44.8999C68.2183 42.8836 64.9374 40.8851 61.6506 38.9044C61.5817 38.8628 61.5219 38.8076 61.475 38.7421C61.4281 38.6767 61.3951 38.6023 61.3779 38.5237C61.3607 38.445 61.3598 38.3636 61.3751 38.2846C61.3905 38.2055 61.4218 38.1305 61.4672 38.0639C62.2405 36.9276 63.2289 36.3515 64.4324 36.3357C67.3266 36.3002 72.6237 40.0822 75.003 41.8696Z" fill="#FFDD59"/>
<path d="M59.7095 42.2543C63.4816 44.2942 67.1847 46.4446 70.8187 48.7055C73.6064 50.4397 75.1334 50.635 75.092 54.5295C75.0722 56.3997 75.0703 58.2601 75.086 60.1107C75.0881 60.1857 75.075 60.2605 75.0475 60.3306C75.0201 60.4007 74.9788 60.4648 74.9262 60.5191L72.3635 63.2239C72.2991 63.2924 72.2191 63.3442 72.1302 63.375C72.0413 63.4058 71.9461 63.4146 71.8526 63.4006C71.7592 63.3867 71.6703 63.3505 71.5933 63.295C71.5164 63.2395 71.4537 63.1664 71.4106 63.0818C70.9726 62.2256 70.29 61.6298 69.3627 61.2944C69.2716 61.2612 69.1901 61.2062 69.1252 61.1341C69.0603 61.062 69.0142 60.9751 68.9908 60.881C68.9674 60.7868 68.9675 60.6884 68.9911 60.5944C69.0147 60.5003 69.061 60.4135 69.126 60.3415L70.9312 58.3588C71.0159 58.2626 71.0677 58.1424 71.0791 58.0155C71.4283 54.3401 69.706 52.8131 66.5218 51.0967C63.5704 49.5065 60.6664 47.8395 57.8096 46.0954C57.7293 46.046 57.6384 46.0165 57.5447 46.0093C57.451 46.0021 57.3572 46.0174 57.271 46.054C54.1638 47.3679 50.3463 46.6873 49.4763 43.071C47.7539 35.9687 58.5554 33.9682 59.4077 41.7985C59.4166 41.893 59.4489 41.984 59.5015 42.0634C59.5541 42.1429 59.6255 42.2084 59.7095 42.2543ZM57.5906 41.7808C57.5906 40.9112 57.2452 40.0772 56.6303 39.4622C56.0154 38.8473 55.1814 38.5019 54.3117 38.5019C53.4421 38.5019 52.6081 38.8473 51.9932 39.4622C51.3783 40.0772 51.0328 40.9112 51.0328 41.7808C51.0328 42.6504 51.3783 43.4844 51.9932 44.0993C52.6081 44.7142 53.4421 45.0597 54.3117 45.0597C55.1814 45.0597 56.0154 44.7142 56.6303 44.0993C57.2452 43.4844 57.5906 42.6504 57.5906 41.7808Z" fill="#FFDD59"/>
<path d="M75.4352 66.7572C75.5578 66.7994 75.6918 66.7973 75.814 66.7513C79.1166 65.5261 79.9747 63.5079 79.9688 59.9863C79.9609 56.4154 79.959 52.8485 79.9629 49.2855C79.963 49.1903 79.9404 49.0965 79.8972 49.0121C79.854 48.9277 79.7913 48.855 79.7143 48.8002C76.4591 46.4801 76.7373 41.3013 80.4364 39.8276C86.3668 37.4601 90.4743 45.8646 84.5676 49.102C84.4746 49.1522 84.397 49.2265 84.3428 49.3171C84.2886 49.4077 84.26 49.5113 84.2598 49.6169C84.2361 54.5925 84.2026 59.5562 84.1592 64.5081C84.1296 67.7101 78.3471 70.0775 76.5064 71.0127C76.3874 71.0704 76.2528 71.0891 76.1217 71.066L72.2746 70.3084C72.1838 70.2909 72.0985 70.2522 72.0254 70.1954C71.9523 70.1386 71.8936 70.0653 71.8539 69.9813C71.8142 69.8973 71.7946 69.805 71.7968 69.7117C71.7989 69.6184 71.8227 69.5268 71.8663 69.4443L72.4522 68.3612C72.5026 68.2602 72.5251 68.1498 72.5173 68.0415L72.4285 66.6625C72.4222 66.567 72.4393 66.4715 72.4784 66.3841C72.5175 66.2967 72.5775 66.2201 72.6531 66.1607C72.7288 66.1014 72.8178 66.0611 72.9127 66.0434C73.0076 66.0256 73.1055 66.0309 73.198 66.0588L75.4352 66.7572ZM85.6448 44.3731C85.6448 43.505 85.2999 42.6725 84.6861 42.0587C84.0723 41.4449 83.2398 41.1001 82.3718 41.1001C81.5037 41.1001 80.6712 41.4449 80.0574 42.0587C79.4436 42.6725 79.0988 43.505 79.0988 44.3731C79.0988 45.2411 79.4436 46.0736 80.0574 46.6874C80.6712 47.3012 81.5037 47.6461 82.3718 47.6461C83.2398 47.6461 84.0723 47.3012 84.6861 46.6874C85.2999 46.0736 85.6448 45.2411 85.6448 44.3731Z" fill="#FFDD59"/>
<path d="M52.4174 47.9657C53.1553 48.7114 53.0586 49.3349 52.1274 49.836L39.7398 56.4589C39.6549 56.504 39.5604 56.528 39.4643 56.5288C39.3683 56.5296 39.2736 56.5071 39.1885 56.4634C39.1034 56.4197 39.0305 56.356 38.976 56.2779C38.9214 56.1998 38.887 56.1095 38.8757 56.015C38.2542 51.1617 42.6873 49.8478 46.1496 47.9657C48.8426 46.5038 50.0737 45.5864 52.4174 47.9657Z" fill="#FFDD59"/>
<path d="M90.9477 49.3624C91.7447 50.0253 92.2005 50.8796 92.3149 51.9252C92.6108 54.6872 92.5714 57.6485 92.1965 60.809C91.9045 63.283 90.6202 64.3582 88.3435 64.0347C88.2008 64.0132 88.0707 63.9409 87.9771 63.831C87.8836 63.7212 87.8329 63.5812 87.8345 63.4369L88.0949 48.8357C88.0963 48.7456 88.1183 48.6571 88.1591 48.5768C88.1999 48.4965 88.2585 48.4266 88.3304 48.3723C88.4023 48.3181 88.4857 48.281 88.5741 48.2639C88.6625 48.2467 88.7537 48.25 88.8407 48.2734C89.614 48.4786 90.3164 48.8416 90.9477 49.3624Z" fill="#FFDD59"/>
<path d="M41.1013 59.8503C41.1867 59.8905 41.2804 59.9093 41.3742 59.9052C41.4681 59.9011 41.5593 59.8741 41.6399 59.8266C45.6488 57.5302 49.7346 55.2298 53.8973 52.9255C55.8505 51.8484 56.9217 51.2565 59.1353 52.3514C61.0411 53.2925 64.61 54.8432 65.4741 56.8614C65.8608 57.765 66.1587 58.6962 66.3678 59.655C66.3873 59.7405 66.3874 59.8294 66.3679 59.915C66.3485 60.0005 66.3101 60.0806 66.2556 60.1494C66.201 60.2181 66.1317 60.2737 66.0528 60.3121C65.9739 60.3505 65.8874 60.3707 65.7996 60.3711C64.829 60.383 63.9412 60.6454 63.1363 61.1583C63.0542 61.2113 62.9603 61.2429 62.8629 61.2503C62.7655 61.2578 62.6676 61.2408 62.578 61.201C62.4884 61.1611 62.4097 61.0996 62.3492 61.022C62.2886 60.9443 62.2479 60.8529 62.2307 60.7558C61.7138 57.7018 59.6502 56.3919 56.0399 56.8259C55.9649 56.8377 55.8939 56.8614 55.8268 56.8969L44.0961 63.3778C44.003 63.4294 43.9257 63.5057 43.8725 63.5985C43.8193 63.6913 43.7923 63.7971 43.7943 63.9045C43.8239 67.58 40.5391 70.3026 37.0944 69.0656C30.5129 66.6981 34.2239 56.6483 41.1013 59.8503ZM41.8885 64.236C41.8885 63.3679 41.5437 62.5354 40.9299 61.9216C40.3161 61.3078 39.4836 60.963 38.6155 60.963C37.7475 60.963 36.915 61.3078 36.3012 61.9216C35.6873 62.5354 35.3425 63.3679 35.3425 64.236C35.3425 65.104 35.6873 65.9365 36.3012 66.5503C36.915 67.1641 37.7475 67.509 38.6155 67.509C39.4836 67.509 40.3161 67.1641 40.9299 66.5503C41.5437 65.9365 41.8885 65.104 41.8885 64.236Z" fill="#FFDD59"/>
<path d="M52.4886 84.5604C54.7791 86.4484 55.9983 88.6028 54.5838 91.3195C50.9438 98.2857 39.8405 90.8401 47.8129 84.448C47.8828 84.3928 47.9389 84.3213 47.9769 84.2392C48.0149 84.157 48.0337 84.0664 48.0319 83.9745C47.9332 78.8845 47.9767 73.7195 48.1621 68.4796C48.2331 66.4436 54.347 62.271 57.0341 62.5136C58.1231 62.6083 59.1746 62.8687 60.1887 63.2949C60.2692 63.3289 60.3411 63.3803 60.3994 63.4454C60.4576 63.5105 60.5007 63.5877 60.5256 63.6714C60.5505 63.7551 60.5566 63.8433 60.5433 63.9297C60.5301 64.016 60.4979 64.0984 60.4491 64.1708C59.9756 64.8771 59.7862 65.6485 59.8809 66.485C59.8914 66.5781 59.8796 66.6723 59.8465 66.76C59.8134 66.8476 59.76 66.9261 59.6907 66.9891C59.6214 67.0521 59.5381 67.0977 59.4477 67.1222C59.3573 67.1467 59.2623 67.1495 59.1707 67.1301L56.1877 66.4968C56.0899 66.4769 55.9888 66.4816 55.8937 66.5106C55.7985 66.5395 55.7124 66.5918 55.6432 66.6626L52.5064 69.8468C52.4001 69.9565 52.3407 70.1051 52.3406 70.2611L52.2755 84.1047C52.2737 84.1915 52.292 84.2777 52.3289 84.3567C52.3659 84.4357 52.4205 84.5054 52.4886 84.5604ZM53.3409 89.1473C53.3409 88.2887 52.9998 87.4652 52.3926 86.8581C51.7855 86.2509 50.962 85.9099 50.1034 85.9099C49.2448 85.9099 48.4213 86.2509 47.8142 86.8581C47.207 87.4652 46.8659 88.2887 46.8659 89.1473C46.8659 90.006 47.207 90.8294 47.8142 91.4366C48.4213 92.0437 49.2448 92.3848 50.1034 92.3848C50.962 92.3848 51.7855 92.0437 52.3926 91.4366C52.9998 90.8294 53.3409 90.006 53.3409 89.1473Z" fill="#FFDD59"/>
<path d="M66.1488 70.9062C68.486 70.9062 70.3806 69.0116 70.3806 66.6744C70.3806 64.3373 68.486 62.4426 66.1488 62.4426C63.8116 62.4426 61.917 64.3373 61.917 66.6744C61.917 69.0116 63.8116 70.9062 66.1488 70.9062Z" fill="#FFDD59"/>
<path d="M74.5235 76.7301C75.8453 76.8248 76.9955 76.5782 77.974 75.9903C81.3516 73.9661 84.7587 71.9597 88.1955 69.9711C88.2661 69.9319 88.3275 69.8777 88.3755 69.8124C88.4235 69.747 88.457 69.672 88.4736 69.5923C90.4682 60.9925 102.057 66.1417 97.8724 72.6226C96.1678 75.2623 93.6879 75.7358 90.4327 74.0431C90.3455 73.9977 90.2483 73.975 90.1501 73.9771C90.0518 73.9792 89.9556 74.0059 89.8704 74.0549C85.8774 76.3 81.8922 78.5451 77.9149 80.7903C76.8456 81.3979 75.8927 81.6603 75.0562 81.5774C72.89 81.3703 67.723 78.6477 66.8885 76.5111C66.5452 75.6431 66.2848 74.7513 66.1072 73.8359C66.0778 73.6911 66.1041 73.5405 66.1809 73.4143C66.2577 73.2881 66.3794 73.1956 66.5215 73.1553L69.4394 72.2852C69.5225 72.2615 69.6098 72.2561 69.6953 72.2693C69.7807 72.2826 69.8622 72.3142 69.9342 72.3621C70.0062 72.4099 70.067 72.4728 70.1124 72.5463C70.1578 72.6199 70.1866 72.7025 70.197 72.7883C70.4732 75.2307 71.9154 76.5447 74.5235 76.7301ZM96.8721 70.0539C96.8721 69.1937 96.5304 68.3687 95.9222 67.7605C95.3139 67.1522 94.4889 66.8105 93.6287 66.8105C92.7685 66.8105 91.9436 67.1522 91.3353 67.7605C90.7271 68.3687 90.3854 69.1937 90.3854 70.0539C90.3854 70.9141 90.7271 71.7391 91.3353 72.3473C91.9436 72.9556 92.7685 73.2973 93.6287 73.2973C94.4889 73.2973 95.3139 72.9556 95.9222 72.3473C96.5304 71.7391 96.8721 70.9141 96.8721 70.0539Z" fill="#FFDD59"/>
<path d="M43.9242 69.3318C44.0807 69.338 44.2285 69.4053 44.3358 69.5193C44.4432 69.6333 44.5015 69.7848 44.4983 69.9414L44.1373 84.4538C44.1352 84.5419 44.1135 84.6285 44.0738 84.7072C44.034 84.7859 43.9771 84.8546 43.9074 84.9085C43.8376 84.9624 43.7567 85 43.6705 85.0187C43.5843 85.0373 43.4951 85.0364 43.4093 85.0161C41.9849 84.6886 40.9827 83.9448 40.4026 82.7848C39.5326 81.0269 39.5089 72.8593 40.4026 71.1192C41.0379 69.8763 42.2118 69.2805 43.9242 69.3318Z" fill="#FFDD59"/>
<path d="M74.8787 87.5316C82.4309 84.3355 85.4493 95.7288 78.2878 97.0013C75.4765 97.5044 73.0913 95.6815 72.5113 92.9057C72.3811 92.2901 72.2015 91.6904 71.9727 91.1064C71.9227 90.9797 71.8309 90.8733 71.7123 90.8046C67.5495 88.4489 63.4124 86.0697 59.301 83.6667C56.4837 82.0214 57.1348 77.7895 57.1584 74.9486C57.1624 74.045 57.3932 73.2598 57.8509 72.593C58.4507 71.7171 59.1352 70.9102 59.9047 70.1723C59.9633 70.1151 60.0332 70.0707 60.1098 70.0419C60.1865 70.0131 60.2683 70.0006 60.3501 70.005C60.4319 70.0095 60.5118 70.0308 60.5849 70.0678C60.658 70.1047 60.7226 70.1565 60.7747 70.2197C61.4297 71.0246 62.1991 71.6855 63.083 72.2024C63.1658 72.2504 63.2357 72.3179 63.2867 72.3989C63.3377 72.4799 63.3684 72.5721 63.3759 72.6675C63.3835 72.763 63.3678 72.8588 63.3302 72.9469C63.2925 73.0349 63.2341 73.1125 63.1599 73.173C62.6785 73.5597 62.2386 73.9839 61.8401 74.4455C59.5436 77.0675 62.3431 80.5299 64.6987 81.8734C67.9382 83.7239 71.154 85.5982 74.3461 87.4961C74.4265 87.5438 74.5168 87.5719 74.6094 87.5781C74.702 87.5842 74.7943 87.5683 74.8787 87.5316ZM80.5843 91.9942C80.5843 91.1277 80.2401 90.2967 79.6274 89.684C79.0147 89.0713 78.1837 88.7271 77.3172 88.7271C76.4507 88.7271 75.6197 89.0713 75.007 89.684C74.3943 90.2967 74.0501 91.1277 74.0501 91.9942C74.0501 92.8607 74.3943 93.6917 75.007 94.3044C75.6197 94.917 76.4507 95.2613 77.3172 95.2613C78.1837 95.2613 79.0147 94.917 79.6274 94.3044C80.2401 93.6917 80.5843 92.8607 80.5843 91.9942Z" fill="#FFDD59"/>
<path d="M84.7211 86.3004C82.5726 87.4486 77.1216 85.5488 81.0279 83.2879C84.8434 81.0822 88.7003 78.9515 92.5987 76.8958C92.6767 76.8545 92.7628 76.8311 92.8509 76.8274C92.9391 76.8237 93.0269 76.8398 93.108 76.8744C93.1892 76.909 93.2615 76.9613 93.3198 77.0274C93.3782 77.0936 93.4209 77.172 93.4451 77.2568C94.1001 79.494 93.4648 81.2124 91.5393 82.4119C89.7795 83.5128 87.5067 84.8089 84.7211 86.3004Z" fill="#FFDD59"/>
<path d="M70.6645 94.8114C70.7462 94.861 70.8146 94.9296 70.864 95.0115C70.9134 95.0933 70.9422 95.1858 70.948 95.2812C70.9538 95.3766 70.9365 95.472 70.8974 95.5592C70.8583 95.6464 70.7987 95.7229 70.7237 95.782C68.8948 97.2321 67.2317 97.5576 65.0537 96.3917C63.1064 95.35 58.0105 93.0713 57.0872 91.1714C56.665 90.3073 56.5072 89.4274 56.6137 88.5318C56.7834 87.0994 57.4818 86.7581 58.7089 87.5078L70.6645 94.8114Z" fill="#FFDD59"/>
<path d="M147.296 45.2H152.032V85.904H177.12V90H147.296V45.2ZM194.264 49.296V85.904H203.352V90H180.504V85.904H189.592V49.296H180.504V45.2H203.352V49.296H194.264ZM261.42 44.816C266.54 44.816 270.529 46.288 273.388 49.232C276.246 52.176 277.676 56.4427 277.676 62.032V90H273.004V62.16C273.004 57.808 271.894 54.544 269.676 52.368C267.5 50.1493 264.513 49.04 260.716 49.04C256.705 49.04 253.569 50.2133 251.308 52.56C249.046 54.864 247.916 58.4053 247.916 63.184V90H243.244V62.16C243.244 57.808 242.177 54.544 240.044 52.368C237.91 50.1493 234.945 49.04 231.148 49.04C227.094 49.04 223.916 50.2133 221.612 52.56C219.35 54.864 218.22 58.4053 218.22 63.184V90H213.484V45.2H218.028V52.688C219.265 50.128 221.1 48.1867 223.532 46.864C225.964 45.4987 228.844 44.816 232.172 44.816C235.67 44.816 238.657 45.5627 241.132 47.056C243.649 48.5067 245.462 50.5547 246.572 53.2C247.852 50.4693 249.772 48.4 252.332 46.992C254.934 45.5413 257.964 44.816 261.42 44.816ZM311.505 90.384C307.068 90.384 303.036 89.4027 299.409 87.44C295.825 85.4347 293.009 82.704 290.961 79.248C288.956 75.792 287.953 71.9093 287.953 67.6C287.953 63.2907 288.956 59.408 290.961 55.952C293.009 52.496 295.825 49.7867 299.409 47.824C303.036 45.8187 307.068 44.816 311.505 44.816C315.942 44.816 319.932 45.7973 323.473 47.76C327.057 49.7227 329.873 52.4533 331.921 55.952C333.969 59.408 334.993 63.2907 334.993 67.6C334.993 71.9093 333.969 75.8133 331.921 79.312C329.873 82.768 327.057 85.4773 323.473 87.44C319.932 89.4027 315.942 90.384 311.505 90.384ZM311.505 86.16C315.046 86.16 318.246 85.3707 321.105 83.792C323.964 82.1707 326.204 79.952 327.825 77.136C329.446 74.2773 330.257 71.0987 330.257 67.6C330.257 64.1013 329.446 60.944 327.825 58.128C326.204 55.2693 323.964 53.0507 321.105 51.472C318.246 49.8507 315.046 49.04 311.505 49.04C307.964 49.04 304.742 49.8507 301.841 51.472C298.982 53.0507 296.721 55.2693 295.057 58.128C293.436 60.944 292.625 64.1013 292.625 67.6C292.625 71.0987 293.436 74.2773 295.057 77.136C296.721 79.952 298.982 82.1707 301.841 83.792C304.742 85.3707 307.964 86.16 311.505 86.16ZM372.08 90L357.616 70.288L343.216 90H337.776L354.8 66.96L338.864 45.2H344.304L357.808 63.504L371.248 45.2H376.368L360.496 66.832L377.584 90H372.08Z" fill="#FFDD59"/>
</svg>
