<svg width="500" height="500" viewBox="0 0 500 500" fill="none" xmlns="http://www.w3.org/2000/svg">
<g clip-path="url(#clip0_410_30)">
<path d="M163.25 112.969C163.25 84.4531 186.568 61.25 215.083 61.25H283.953C312.427 61.25 335.75 84.4531 335.75 112.969V194.411H163.25V112.969ZM264.5 332.734C262.583 333.516 261.49 335.391 261.844 337.344L274.615 421.016C274.849 422.38 274.422 423.786 273.484 424.88C272.547 426.016 271.255 426.599 269.813 426.599H229.188C227.74 426.599 226.453 426.016 225.516 424.88C224.578 423.786 224.146 422.38 224.422 421.016L237.156 337.344C237.505 335.391 236.412 333.516 234.5 332.734C215.75 325.349 205.125 305.583 209.224 285.625C212.427 270.036 225.005 257.458 240.594 254.177C243.521 253.594 246.49 253.24 249.422 253.24C258.912 253.24 268.094 256.406 275.438 262.422C285.125 270.313 290.672 281.953 290.672 294.453C290.672 311.484 280.438 326.484 264.5 332.734ZM412.74 194.411H393.406V107.068C393.406 48.0469 345.359 0 286.333 0H212.662C153.641 0 105.594 48.0469 105.594 107.068V194.411H86.2553C55.8699 194.411 31.1042 219.255 31.1042 249.646V444.844C31.1042 475.234 55.8699 500 86.2553 500H412.74C443.13 500 467.896 475.234 467.896 444.844V249.646C467.896 219.255 443.13 194.411 412.74 194.411Z" fill="black"/>
</g>
<defs>
<clipPath id="clip0_410_30">
<rect width="500" height="500" fill="white"/>
</clipPath>
</defs>
</svg>
