<svg width="500" height="500" viewBox="0 0 500 500" fill="none" xmlns="http://www.w3.org/2000/svg">
<g clip-path="url(#clip0_410_32)">
<path d="M386.437 133.682C386.437 135.859 386.385 138.031 386.276 140.198C386.172 142.37 386.01 144.536 385.797 146.703C385.583 148.865 385.318 151.021 385 153.172C384.682 155.323 384.307 157.464 383.885 159.594C383.458 161.724 382.984 163.844 382.458 165.953C381.927 168.062 381.349 170.156 380.719 172.234C380.083 174.318 379.401 176.38 378.672 178.427C377.937 180.474 377.156 182.5 376.323 184.51C375.49 186.516 374.609 188.505 373.682 190.469C372.75 192.432 371.776 194.375 370.75 196.292C369.724 198.208 368.651 200.099 367.536 201.964C366.417 203.828 365.255 205.661 364.047 207.469C362.838 209.276 361.588 211.052 360.292 212.802C358.995 214.547 357.661 216.26 356.281 217.937C354.901 219.62 353.479 221.266 352.021 222.875C350.562 224.484 349.062 226.057 347.526 227.594C345.99 229.135 344.411 230.63 342.802 232.089C341.193 233.552 339.547 234.969 337.865 236.349C336.182 237.729 334.469 239.062 332.724 240.359C330.979 241.656 329.198 242.906 327.391 244.115C325.583 245.323 323.75 246.484 321.88 247.599C320.016 248.719 318.125 249.786 316.208 250.812C314.292 251.839 312.349 252.818 310.385 253.745C308.417 254.672 306.432 255.552 304.422 256.385C302.411 257.219 300.385 258 298.338 258.734C296.292 259.464 294.229 260.146 292.146 260.776C290.068 261.406 287.969 261.99 285.859 262.516C283.755 263.042 281.63 263.521 279.5 263.943C277.365 264.37 275.224 264.74 273.073 265.057C270.922 265.375 268.766 265.646 266.604 265.854C264.437 266.068 262.271 266.229 260.099 266.339C257.927 266.443 255.755 266.495 253.578 266.495C251.406 266.495 249.234 266.443 247.062 266.339C244.891 266.229 242.724 266.068 240.557 265.854C238.396 265.646 236.234 265.375 234.088 265.057C231.937 264.74 229.792 264.37 227.661 263.943C225.526 263.521 223.406 263.042 221.297 262.516C219.187 261.99 217.094 261.406 215.016 260.776C212.932 260.146 210.87 259.464 208.823 258.734C206.776 258 204.745 257.219 202.74 256.385C200.729 255.552 198.74 254.672 196.776 253.745C194.812 252.818 192.87 251.839 190.953 250.812C189.036 249.786 187.141 248.719 185.276 247.599C183.411 246.484 181.578 245.323 179.771 244.115C177.963 242.906 176.182 241.656 174.437 240.359C172.693 239.062 170.979 237.729 169.297 236.349C167.615 234.969 165.969 233.552 164.359 232.089C162.75 230.63 161.172 229.135 159.635 227.594C158.099 226.057 156.599 224.484 155.141 222.875C153.677 221.266 152.26 219.62 150.88 217.937C149.5 216.26 148.161 214.547 146.87 212.802C145.573 211.052 144.323 209.276 143.115 207.469C141.906 205.661 140.745 203.828 139.625 201.964C138.505 200.099 137.437 198.208 136.411 196.292C135.385 194.375 134.406 192.432 133.479 190.469C132.547 188.505 131.667 186.516 130.838 184.51C130.005 182.5 129.224 180.474 128.49 178.427C127.755 176.38 127.073 174.318 126.443 172.234C125.812 170.156 125.234 168.062 124.703 165.953C124.177 163.844 123.698 161.724 123.276 159.594C122.854 157.464 122.479 155.323 122.161 153.172C121.844 151.021 121.578 148.865 121.365 146.703C121.151 144.536 120.99 142.37 120.885 140.198C120.776 138.031 120.724 135.859 120.724 133.682C120.724 131.51 120.776 129.339 120.885 127.167C120.99 124.995 121.151 122.828 121.365 120.667C121.578 118.5 121.844 116.344 122.161 114.198C122.479 112.047 122.854 109.906 123.276 107.771C123.698 105.641 124.177 103.521 124.703 101.411C125.234 99.302 125.812 97.2083 126.443 95.1302C127.073 93.052 127.755 90.9843 128.49 88.9427C129.224 86.8958 130.005 84.8645 130.838 82.8593C131.667 80.8489 132.547 78.8645 133.479 76.901C134.406 74.9323 135.385 72.9948 136.411 71.0781C137.437 69.1614 138.505 67.2708 139.625 65.4062C140.745 63.5416 141.906 61.7031 143.115 59.8958C144.323 58.0885 145.573 56.3125 146.87 54.5677C148.161 52.8229 149.5 51.1093 150.88 49.427C152.26 47.75 153.677 46.1041 155.141 44.4948C156.599 42.8802 158.099 41.3073 159.635 39.7708C161.172 38.2343 162.75 36.7343 164.359 35.276C165.969 33.8177 167.615 32.3958 169.297 31.0156C170.979 29.6406 172.693 28.302 174.437 27.0052C176.182 25.7135 177.963 24.4635 179.771 23.2552C181.578 22.0468 183.411 20.8854 185.276 19.7656C187.141 18.651 189.036 17.5781 190.953 16.552C192.87 15.5312 194.812 14.552 196.776 13.625C198.74 12.6927 200.729 11.8125 202.74 10.9791C204.745 10.151 206.776 9.36454 208.823 8.63537C210.87 7.901 212.932 7.21871 215.016 6.5885C217.094 5.95829 219.187 5.38017 221.297 4.84892C223.406 4.32288 225.531 3.84892 227.661 3.42183C229.792 2.99996 231.937 2.62496 234.088 2.30725C236.234 1.98954 238.396 1.72392 240.557 1.51038C242.724 1.29683 244.891 1.13537 247.062 1.03121C249.234 0.927042 251.406 0.869751 253.578 0.869751C255.755 0.869751 257.927 0.927042 260.099 1.03121C262.271 1.13537 264.437 1.29683 266.604 1.51038C268.766 1.72392 270.922 1.98954 273.073 2.30725C275.224 2.62496 277.365 2.99996 279.5 3.42183C281.63 3.84892 283.755 4.32288 285.859 4.84892C287.969 5.38017 290.068 5.95829 292.146 6.5885C294.229 7.21871 296.292 7.901 298.338 8.63537C300.385 9.36454 302.411 10.151 304.422 10.9791C306.432 11.8125 308.417 12.6927 310.385 13.625C312.349 14.552 314.292 15.5312 316.208 16.552C318.125 17.5781 320.016 18.651 321.88 19.7656C323.75 20.8854 325.583 22.0468 327.391 23.2552C329.198 24.4635 330.979 25.7135 332.724 27.0052C334.469 28.302 336.182 29.6406 337.865 31.0156C339.547 32.3958 341.193 33.8177 342.802 35.276C344.411 36.7343 345.99 38.2343 347.526 39.7708C349.062 41.3073 350.562 42.8802 352.021 44.4948C353.479 46.1041 354.901 47.75 356.281 49.427C357.661 51.1093 358.995 52.8229 360.292 54.5677C361.588 56.3125 362.838 58.0885 364.047 59.8958C365.255 61.7031 366.417 63.5416 367.536 65.4062C368.651 67.2708 369.724 69.1614 370.75 71.0781C371.776 72.9948 372.75 74.9323 373.682 76.901C374.609 78.8645 375.49 80.8489 376.323 82.8593C377.156 84.8645 377.937 86.8958 378.672 88.9427C379.401 90.9843 380.083 93.052 380.719 95.1302C381.349 97.2083 381.927 99.302 382.458 101.411C382.984 103.521 383.458 105.641 383.885 107.771C384.307 109.906 384.682 112.047 385 114.198C385.318 116.344 385.583 118.5 385.797 120.667C386.01 122.828 386.172 124.995 386.276 127.167C386.385 129.339 386.437 131.51 386.437 133.682Z" fill="black"/>
<path d="M75.0313 506.417H432.13C433.427 506.401 434.719 506.349 436.016 506.255C437.307 506.161 438.594 506.031 439.88 505.865C441.162 505.693 442.443 505.49 443.714 505.24C444.984 504.995 446.25 504.714 447.5 504.391C448.755 504.068 450 503.708 451.234 503.313C452.469 502.917 453.688 502.484 454.896 502.016C456.104 501.547 457.297 501.042 458.474 500.505C459.651 499.964 460.813 499.385 461.953 498.776C463.094 498.167 464.219 497.526 465.323 496.849C466.427 496.167 467.511 495.458 468.573 494.719C469.636 493.974 470.672 493.203 471.688 492.396C472.703 491.594 473.693 490.76 474.656 489.896C475.625 489.031 476.563 488.141 477.474 487.219C478.386 486.302 479.271 485.354 480.125 484.38C480.979 483.406 481.802 482.411 482.599 481.391C483.396 480.365 484.156 479.323 484.891 478.255C485.625 477.188 486.323 476.094 486.99 474.984C487.656 473.875 488.292 472.745 488.891 471.599C489.49 470.453 490.057 469.286 490.583 468.104C491.115 466.922 491.609 465.724 492.068 464.516C492.526 463.302 492.948 462.078 493.333 460.844C493.719 459.604 494.063 458.359 494.375 457.104C494.682 455.844 494.958 454.578 495.188 453.307C495.422 452.031 495.62 450.75 495.776 449.469C495.932 448.182 496.052 446.891 496.136 445.599C496.214 444.307 496.255 443.016 496.255 441.719C496.261 440.422 496.224 439.13 496.151 437.839C496.073 436.542 495.958 435.255 495.807 433.969C495.656 432.682 495.464 431.401 495.234 430.13C495.005 428.854 494.74 427.589 494.432 426.328C494.13 425.068 493.787 423.823 493.406 422.583C493.026 421.344 492.609 420.12 492.156 418.906C490.318 414.255 488.307 409.677 486.12 405.172C483.938 400.672 481.589 396.255 479.078 391.932C476.563 387.604 473.891 383.375 471.057 379.25C468.229 375.125 465.25 371.109 462.115 367.208C458.984 363.302 455.714 359.521 452.297 355.865C448.88 352.208 445.333 348.682 441.656 345.286C437.974 341.896 434.177 338.646 430.255 335.536C426.328 332.432 422.297 329.474 418.151 326.667C414.011 323.865 409.766 321.214 405.422 318.729C401.078 316.24 396.651 313.917 392.136 311.76C387.62 309.604 383.026 307.62 378.359 305.807C373.698 303.995 368.969 302.359 364.182 300.901C359.396 299.443 354.557 298.167 349.677 297.068C344.792 295.974 339.875 295.063 334.922 294.333C329.969 293.604 325 293.063 320.005 292.708C315.011 292.349 310.016 292.182 305.011 292.203H202.151C197.151 292.203 192.156 292.385 187.167 292.755C182.182 293.125 177.214 293.682 172.266 294.422C167.323 295.161 162.406 296.089 157.531 297.193C152.651 298.302 147.823 299.589 143.042 301.052C138.261 302.516 133.542 304.161 128.88 305.974C124.219 307.792 119.636 309.781 115.125 311.943C110.615 314.099 106.188 316.422 101.849 318.911C97.5105 321.396 93.2709 324.042 89.1303 326.849C84.9897 329.651 80.9584 332.604 77.0365 335.708C73.1147 338.813 69.3178 342.057 65.6355 345.443C61.9584 348.833 58.4115 352.349 54.9897 356C51.573 359.651 48.297 363.422 45.1615 367.318C42.0261 371.214 39.0365 375.219 36.2032 379.339C33.3647 383.453 30.6824 387.672 28.1615 391.99C25.6355 396.302 23.2761 400.708 21.0834 405.203C18.8855 409.693 16.8595 414.26 15.0053 418.906C14.5522 420.12 14.1355 421.344 13.7553 422.583C13.3751 423.818 13.0313 425.068 12.724 426.328C12.422 427.583 12.1511 428.854 11.922 430.125C11.6928 431.401 11.5053 432.682 11.349 433.969C11.198 435.255 11.0834 436.542 11.0105 437.839C10.9324 439.13 10.8959 440.422 10.9011 441.719C10.9011 443.016 10.9428 444.307 11.0209 445.599C11.1042 446.891 11.224 448.182 11.3803 449.469C11.5365 450.75 11.7345 452.031 11.9636 453.307C12.198 454.578 12.474 455.844 12.7813 457.104C13.0938 458.359 13.4376 459.609 13.823 460.844C14.2084 462.083 14.6303 463.307 15.0886 464.516C15.547 465.729 16.0365 466.927 16.5678 468.104C17.099 469.286 17.6615 470.453 18.2605 471.604C18.8647 472.75 19.4949 473.88 20.1615 474.99C20.8334 476.099 21.5313 477.188 22.2657 478.255C22.9949 479.323 23.7605 480.37 24.5574 481.391C25.349 482.417 26.1772 483.411 27.0313 484.385C27.8855 485.359 28.7709 486.302 29.6824 487.224C30.5938 488.146 31.5313 489.036 32.4949 489.901C33.4636 490.766 34.4532 491.599 35.4688 492.401C36.4845 493.208 37.5209 493.979 38.5834 494.724C39.6459 495.464 40.7292 496.172 41.8334 496.849C42.9376 497.526 44.0626 498.172 45.2032 498.781C46.349 499.391 47.5053 499.969 48.6824 500.505C49.8595 501.047 51.0522 501.552 52.2605 502.021C53.4688 502.49 54.6928 502.922 55.922 503.318C57.1563 503.714 58.4011 504.073 59.6563 504.396C60.9115 504.714 62.1772 505 63.448 505.245C64.7188 505.49 66.0001 505.698 67.2813 505.865C68.5678 506.036 69.8542 506.167 71.1459 506.255C72.4376 506.349 73.7345 506.401 75.0313 506.417Z" fill="black"/>
</g>
<defs>
<clipPath id="clip0_410_32">
<rect width="500" height="500" fill="white"/>
</clipPath>
</defs>
</svg>
